<svg xmlns="http://www.w3.org/2000/svg" xmlns:xlink="http://www.w3.org/1999/xlink" xmlns:a="http://ns.adobe.com/AdobeSVGViewerExtensions/3.0/" version="1.1" x="0px" y="0px" width="100px" height="100px" viewBox="0 -0.995 100 100" enable-background="new 0 -0.995 100 100" xml:space="preserve">
<defs>
</defs>
<path fill="#000000" d="M50,99.005L50,99.005l-2-3.146c-4.806-0.771-10.581-4.693-13.752-13.726  c-0.279,0.07-0.554,0.136-0.824,0.196l-0.22,0.754c-1.823,6.271-3.62,12.329-8.495,15.104c-2.583,0.816-3.958-1.975-2.028-3.447  c3.612-2.36,4.885-6.613,6.46-12.011c-0.217-0.041-0.399-0.102-0.542-0.184c-0.597-0.338-1.173-1.021-1.704-1.86  c-0.536,0.936-1.018,1.591-1.428,1.9c-3.789,2.85-19.841,2.664-23.239,1.543c-1.064-0.352-1.727-0.948-1.97-1.772  c-0.7-2.354,0.075-6.798,1.802-10.332c4.57-9.341,15.904-21.472,24.661-30.051c-1.932-0.412-3.902-0.4-6.065-0.389  c-3.119,0.019-7.227-0.062-10.545-1.362c-1.984-1.301-0.693-4.176,1.354-3.764c2.912,1.088,6.116,1.144,9.169,1.126  c3.024-0.016,6.138-0.034,9.388,1.203c3.745-3.564,6.638-6.147,7.69-7.077c-5.797-2.107-8.596-3.623-7.571-7.903  c0.212-0.889,0.444-1.703,0.658-2.456c1.132-3.969,1.236-4.788-3.843-6.859c-2.037-0.529-1.329-4.654,1.549-3.688  c7.881,3.309,7.577,6.606,6.141,11.644c-0.2,0.701-0.417,1.459-0.615,2.289c-0.235,0.981-0.042,1.38,5.994,3.551  c0.931-0.927,2.054-1.659,3.368-2.194c-4.445-1.241-6.051-4.736-6.051-7.697c0-2.034,1.019-4.578,2.705-6.836  C36.62,8.715,29.969,5.508,23.203,3.944C20.5,3.067,21.5-0.495,24.185,0.066c7.627,1.751,14.8,5.33,18.618,8.603  c2.005-1.634,4.418-2.74,6.982-2.74H50c2.564,0,4.977,1.105,6.981,2.74C60.799,5.396,67.638,2.064,75.6,0.066  c3.212-0.624,3.337,3.376,0.981,3.878c-6.77,1.624-13.418,4.771-16.842,7.618c1.687,2.258,2.705,4.802,2.705,6.836  c0,2.961-1.606,6.457-6.052,7.697c1.314,0.535,2.438,1.267,3.368,2.194c6.036-2.171,6.229-2.57,5.994-3.55  c-0.198-0.831-0.415-1.589-0.614-2.29c-1.437-5.037-1.744-8.26,6.141-11.644c2.801-1.05,3.551,3.158,1.549,3.688  c-5.179,2.175-4.975,2.89-3.843,6.859c0.214,0.752,0.445,1.567,0.658,2.457c1.024,4.279-1.774,5.795-7.572,7.902  c1.054,0.93,3.946,3.513,7.691,7.077c3.25-1.237,6.363-1.22,9.388-1.203c3.058,0.017,5.698,0.078,9.169-1.126  c3.345-0.829,3.554,3.254,1.354,3.764c-3.891,1.399-7.43,1.379-10.545,1.362c-2.161-0.011-4.133-0.023-6.065,0.389  c8.757,8.58,20.091,20.71,24.661,30.05c1.728,3.535,2.501,7.979,1.801,10.336c-0.242,0.821-0.905,1.418-1.969,1.77  c-3.398,1.121-19.451,1.307-23.238-1.542c-0.411-0.31-0.894-0.967-1.43-1.901c-0.53,0.839-1.108,1.522-1.706,1.861  c-0.143,0.082-0.324,0.142-0.54,0.184c1.575,5.396,3.127,10.09,6.46,12.01c1.833,1.201,0.458,4.451-2.027,3.447  c-4.95-2.911-6.673-8.834-8.495-15.104l-0.221-0.754c-0.266-0.06-0.536-0.123-0.81-0.192C62.436,91.037,56.773,94.973,52,95.823  L50,99.005z M44.238,90.005h11.324c1.748-1.279,3.454-3.228,4.864-6H39.377C40.789,86.777,42.493,88.726,44.238,90.005z   M63.023,41.075C68.293,58.491,74.85,77.516,76.78,79.437c2.176,1.635,15.471,1.837,19.006,1.049  c0.044-1.411-0.377-4.092-1.653-6.704c-5.653-11.555-23.027-28.35-31.005-35.714c0.001,0.097,0.002,0.195,0.002,0.293  C63.129,39.31,63.092,40.214,63.023,41.075z M3.998,80.484c3.535,0.789,16.833,0.583,19.062-1.094  c1.875-1.876,8.434-20.908,13.706-38.328c-0.072-0.868-0.11-1.769-0.11-2.702c0-0.099,0-0.196,0.001-0.293  c-7.978,7.365-25.353,24.164-31.005,35.714C4.375,76.395,3.955,79.076,3.998,80.484z M40.507,80.005h18.77  c-2.147-0.936-3.876-1.96-4.43-2.825c-0.715-1.116-1.133-2.543-1.332-4.175h-7.246c-0.199,1.631-0.617,3.059-1.332,4.174  C44.383,78.044,42.654,79.069,40.507,80.005z M60.987,49.493c-0.208,1.383-0.646,3.301-1.148,5.508  c-1.418,6.223-3.791,16.637-1.623,20.021c1.03,1.088,8.645,3.597,11.097,3.844c0.371-0.542,0.928-1.625,1.404-2.732  c-3.014-7.11-6.756-18.533-9.476-27.241C61.158,49.098,61.073,49.298,60.987,49.493z M29.068,76.134  c0.477,1.107,1.034,2.19,1.404,2.732c2.453-0.247,10.071-2.761,11.155-3.923c2.11-3.306-0.263-13.72-1.681-19.942  c-0.505-2.218-0.944-4.144-1.15-5.527c-0.084-0.194-0.167-0.393-0.248-0.595C35.827,57.589,32.083,69.02,29.068,76.134z   M46.377,69.005h7.031c0.09-1.912,0.348-3.95,0.69-6h-8.412C46.029,65.055,46.287,67.093,46.377,69.005z M44.927,59.005h9.93  c0.208-0.998,0.424-1.981,0.638-2.935c-0.301-0.121-0.574-0.234-0.813-0.346l-2.798-1.302l2.331-2.022  c2.376-2.062,4.915-6.832,4.915-14.04c0-6.646-2.646-9.356-9.13-9.356h-0.215c-6.485,0-9.13,2.71-9.13,9.356  c0,7.253,2.539,12.041,4.915,14.102l2.331,2.022l-2.798,1.302c-0.236,0.109-0.506,0.22-0.802,0.335  C44.511,57.06,44.723,58.024,44.927,59.005z M47.042,22.654c0.762,0.063,1.607,0.093,2.577,0.093h0.547  c0.97,0,1.814-0.03,2.577-0.093c-0.907-1.343-1.355-2.977-1.244-4.745c0.124-1.966,0.964-4.158,2.697-6.366  C52.938,10.578,51.495,9.929,50,9.929h-0.215c-1.495,0-2.938,0.649-4.196,1.614c1.734,2.208,2.573,4.4,2.697,6.366  C48.397,19.677,47.949,21.311,47.042,22.654z M56.938,14.513c-0.899,1.276-1.376,2.515-1.447,3.649  c-0.089,1.398,0.467,2.522,1.58,3.24c1.092-0.85,1.374-2.021,1.374-3.004C58.445,17.376,57.88,15.925,56.938,14.513z M42.846,14.513  c-0.942,1.413-1.507,2.863-1.507,3.885c0,0.983,0.283,2.154,1.374,3.004c1.113-0.719,1.668-1.842,1.58-3.24  C44.222,17.028,43.746,15.789,42.846,14.513z"/>
</svg>